# xmcd CD database file
# Copyright (C) 1997 Ti Kan
#
# Track frame offsets:
#  182
#  19750
#  48492
#  70972
#  88390
#  102007
#  126802
#  150937
#  174167
#  188322
#
# Disc length: 2709 seconds
#
# Revision: 1
# Processed by: cddbd v1.4b41PL1 Copyright (c) Steve Scherf et al.
# Submitted via: CDWizzard Release:4.32
#
DISCID=710a930a
DTITLE=Chet Atkins c.g.p. - Sails
DYEAR=1900
DGENRE=
TTITLE0=Sails
TTITLE1=Why Worry
TTITLE2=Somethime, Someplace
TTITLE3=Up In My Treehouse
TTITLE4=Waltz For The Lonely
TTITLE5=Laffin' At Life
TTITLE6=On A Roll
TTITLE7=My Song
TTITLE8=Love Letter
TTITLE9=Wobegon (The Way It Used To Be)
EXTD=produced by David Hungate and Chet Atkins\n\nSAILS: Co-produced with
EXTD=Chet
EXTT0=Sails
EXTT1=
EXTT2=
EXTT3=
EXTT4=
EXTT5=
EXTT6=
EXTT7=
EXTT8=
EXTT9=
PLAYORDER=
